<?xml version="1.0" standalone="no"?>
<!DOCTYPE svg PUBLIC "-//W3C//DTD SVG 20010904//EN"
 "http://www.w3.org/TR/2001/REC-SVG-20010904/DTD/svg10.dtd">
<svg version="1.0" xmlns="http://www.w3.org/2000/svg"
 width="920.000000pt" height="920.000000pt" viewBox="0 0 920.000000 920.000000"
 preserveAspectRatio="xMidYMid meet">

<g transform="translate(0.000000,920.000000) scale(0.100000,-0.100000)"
fill="#000000" stroke="none">
<path d="M4323 9193 c-79 -4 -82 -5 -87 -31 -3 -15 -24 -139 -46 -277 -22
-137 -50 -311 -63 -385 l-22 -134 -85 -12 c-152 -20 -424 -82 -559 -126 l-65
-21 -23 29 c-12 16 -120 167 -239 336 -119 170 -219 310 -222 312 -17 10 -609
-269 -643 -303 -4 -3 11 -60 31 -126 50 -158 200 -659 200 -667 0 -4 -48 -40
-107 -81 -134 -92 -284 -212 -385 -306 l-76 -71 -78 44 c-212 117 -593 330
-621 347 l-32 20 -85 -96 c-104 -117 -212 -251 -298 -371 l-65 -90 19 -25 c11
-13 48 -53 82 -89 122 -130 451 -492 454 -499 1 -5 -20 -48 -49 -97 -69 -120
-137 -256 -193 -389 -26 -60 -53 -124 -60 -140 l-14 -31 -113 8 c-540 37 -715
46 -720 40 -19 -21 -114 -424 -153 -653 l-6 -35 387 -155 388 -155 -5 -80 c-6
-103 -6 -478 0 -573 l5 -74 -385 -154 c-211 -84 -385 -155 -387 -157 -12 -11
90 -475 138 -632 l20 -64 52 5 c29 3 167 12 307 21 140 9 304 19 364 23 l108
6 14 -30 c7 -16 34 -79 60 -140 56 -133 124 -269 193 -389 29 -49 50 -92 49
-97 -3 -7 -155 -174 -426 -467 -90 -97 -130 -148 -124 -155 5 -7 48 -65 97
-130 96 -130 161 -209 272 -333 l74 -82 192 108 c106 59 270 151 365 204 l173
97 65 -60 c98 -92 271 -231 393 -316 61 -42 111 -79 111 -82 0 -6 -109 -372
-191 -641 -22 -73 -39 -139 -36 -146 12 -32 596 -312 634 -304 8 2 119 152
247 333 176 250 237 330 252 329 10 -1 77 -18 148 -38 155 -43 339 -83 461
-99 l90 -13 17 -99 c9 -55 39 -239 67 -409 27 -169 53 -311 56 -315 9 -8 702
-8 710 1 4 4 22 103 41 220 18 117 48 301 66 408 l33 194 90 13 c123 16 306
56 461 99 71 20 138 37 148 38 15 1 76 -79 252 -329 128 -181 239 -331 247
-333 22 -5 343 139 502 224 l142 76 -24 77 c-13 42 -39 130 -59 196 -19 66
-46 154 -59 195 -33 106 -95 315 -95 322 0 4 44 37 98 74 118 82 302 228 399
318 l72 67 168 -94 c92 -52 251 -140 353 -197 102 -56 190 -107 197 -112 18
-14 243 247 396 459 l67 93 -128 137 c-258 279 -432 471 -432 477 0 3 21 40
46 83 62 104 141 264 198 398 26 61 53 124 60 140 l14 30 123 -7 c68 -5 255
-17 414 -27 160 -11 293 -16 296 -12 7 7 81 282 103 386 21 96 57 298 53 301
-1 2 -176 72 -387 157 l-385 154 5 79 c6 103 6 478 0 573 l-5 75 380 152 c209
84 383 154 388 156 7 3 -19 165 -49 303 -22 103 -95 379 -103 387 -3 4 -67 3
-141 -2 -74 -5 -245 -16 -380 -25 -135 -8 -261 -16 -280 -17 l-34 -3 -43 105
c-58 142 -159 348 -222 455 -29 48 -51 91 -49 95 2 5 120 136 263 291 143 156
268 292 277 304 16 20 13 25 -84 156 -106 142 -157 203 -275 336 l-73 81 -288
-160 c-158 -88 -323 -181 -366 -205 l-80 -44 -55 54 c-114 109 -284 245 -435
346 -42 29 -76 55 -76 58 0 7 40 142 110 373 124 409 124 410 109 424 -26 26
-322 174 -476 240 -120 50 -154 61 -163 51 -6 -7 -104 -145 -218 -307 -114
-162 -218 -310 -232 -328 l-26 -33 -64 21 c-141 46 -443 113 -585 130 l-60 7
-22 135 c-13 74 -43 258 -67 408 -24 151 -47 276 -49 279 -7 6 -530 12 -634 6z
m687 -1827 c568 -89 1106 -345 1502 -714 209 -195 357 -373 496 -596 272 -435
412 -929 412 -1448 0 -377 -63 -709 -196 -1037 -368 -907 -1175 -1555 -2149
-1725 -299 -52 -702 -48 -1000 9 -256 49 -492 129 -731 246 -445 218 -834 562
-1110 979 -197 298 -348 668 -408 1000 -63 341 -61 726 4 1063 98 506 365
1011 733 1386 492 501 1061 773 1787 855 91 10 560 -3 660 -18z"/>
<path d="M4485 6998 c-622 -24 -1206 -288 -1642 -741 -350 -365 -565 -799
-650 -1312 -25 -156 -25 -535 0 -688 87 -517 302 -953 646 -1310 393 -407 882
-654 1449 -732 151 -20 460 -21 617 0 809 106 1500 590 1866 1307 186 365 270
747 256 1162 -20 594 -254 1140 -675 1577 -343 356 -783 598 -1262 693 -221
44 -359 54 -605 44z"/>
</g>
</svg>
